# xmcd
#
# Track frame offsets: 
#        150
#        12460
#        22567
#        34260
#        43657
#        54390
#        66650
#        76565
#        86515
#        97482
#        109775
#        122150
#        134215
#        145630
#        156717
#        167640
#        179855
#        193405
#        203392
#        212655
#        224317
#        234732
#        245927
#        258312
#        267385
#        275525
#        287472
#        299975
#        311490
#        324252
#        337630
#
# Disc length: 4709 seconds
#
# Revision: 0
# Processed by: cddbd v1.5.1PL2 Copyright (c) Steve Scherf et al.
# Submitted via: ExactAudioCopy v0.95b3
#
DISCID=e612631f
DTITLE=Bobby Hebb - The "Sunny Anthology"
DYEAR=2005
DGENRE=Soul
TTITLE0=Sunny (45 rpm mix)
TTITLE1=I Love Everything About You
TTITLE2=Some Kind Of Magic
TTITLE3=Love Me
TTITLE4=My Pretty Sunshine
TTITLE5=You Want To Change Me
TTITLE6=Dreamy
TTITLE7=Everything Is Coming Up Roses
TTITLE8=Yes Or No Or Maybe Not
TTITLE9=Good Good Lovin'
TTITLE10=A Satisfied Mind
TTITLE11=For You
TTITLE12=You Don't Know What You Got Until You Lose It
TTITLE13=I Am Your Man
TTITLE14=Bread
TTITLE15=Sunny (album mix)
TTITLE16=Love Love Love
TTITLE17=Crazy Baby
TTITLE18=Bound By Love
TTITLE19=I Love Mary
TTITLE20=Betty Jo From Ohio
TTITLE21=Atlanta, G A.
TTITLE22=You Gotta Go
TTITLE23=Feel So Good
TTITLE24=Night Train To Memphis
TTITLE25=You Broke My Heart And I Broke Your Jaw (Bobby and Sylvia)
TTITLE26=I Found Somebody
TTITLE27=Judy
TTITLE28=True I Love You
TTITLE29=Proud Soul Heritage
TTITLE30=Sunny '76
EXTD=
EXTT0=
EXTT1=
EXTT2=
EXTT3=
EXTT4=
EXTT5=
EXTT6=
EXTT7=
EXTT8=
EXTT9=
EXTT10=
EXTT11=
EXTT12=
EXTT13=
EXTT14=
EXTT15=
EXTT16=
EXTT17=
EXTT18=
EXTT19=
EXTT20=
EXTT21=
EXTT22=
EXTT23=
EXTT24=
EXTT25=
EXTT26=
EXTT27=
EXTT28=
EXTT29=
EXTT30=
PLAYORDER=
